<svg height="512pt" viewBox="-31 0 512 512" width="512pt" xmlns="http://www.w3.org/2000/svg"><path d="m225 301c-57.898438 0-105-47.101562-105-105v-21.277344c0-8.285156 6.714844-15 15-15s15 6.714844 15 15v21.277344c0 41.355469 33.644531 75 75 75s75-33.644531 75-75v-21.277344c0-8.285156 6.714844-15 15-15s15 6.714844 15 15v21.277344c0 57.898438-47.101562 105-105 105zm0 0" fill="#ffc574"/><path d="m420.140625 321.316406c-13.539063-16.792968-30.960937-30.085937-50.480469-38.761718l29.488282-29.488282c12.109374-12.113281 19.300781-27.820312 20.613281-44.710937.042969-.355469.058593-.710938.078125-1.066407.09375-1.515624.160156-3.035156.160156-4.5625 0-17.75-6.574219-34.757812-18.476562-47.847656l-115.246094-127.769531c-15.660156-17.230469-37.996094-27.109375-61.277344-27.109375s-45.617188 9.878906-61.320312 27.152344l-115.164063 127.683594c-11.941406 13.132812-18.515625 30.140624-18.515625 47.886718 0 1.53125.066406 3.050782.160156 4.5625.019532.355469.035156.710938.078125 1.066406 1.316407 16.894532 8.503907 32.601563 20.613281 44.710938l29.488282 29.488281c-19.519532 8.679688-36.941406 21.972657-50.480469 38.765625-19.253906 23.878906-29.859375 53.953125-29.859375 84.683594v60c0 8.285156 6.714844 15 15 15h90c8.285156 0 15-6.714844 15-15s-6.714844-15-15-15h-75v-45c0-49.253906 33.472656-91.339844 81.394531-102.339844 5.320313-1.222656 9.554688-5.230468 11.0625-10.476562 1.507813-5.242188.046875-10.890625-3.808593-14.75l-46.582032-46.582032c-4.871094-4.871093-8.371094-10.746093-10.308594-17.15625 42.824219-21.488281 101.570313-33.695312 163.242188-33.695312s120.417969 12.207031 163.242188 33.695312c-1.9375 6.410157-5.4375 12.285157-10.308594 17.15625l-46.582032 46.582032c-3.855468 3.855468-5.316406 9.507812-3.808593 14.75 1.507812 5.242187 5.742187 9.253906 11.0625 10.476562 47.921875 11 81.394531 53.085938 81.394531 102.339844v45h-75c-8.285156 0-15 6.714844-15 15s6.714844 15 15 15h90c8.285156 0 15-6.714844 15-15v-60c0-30.730469-10.605469-60.804688-29.859375-84.683594zm-352.800781-142.046875c1.035156-1.492187 2.171875-2.929687 3.414062-4.296875l115.164063-127.683594c9.988281-10.988281 24.234375-17.289062 39.082031-17.289062s29.09375 6.300781 39.042969 17.246094l115.246093 127.769531c1.226563 1.351563 2.351563 2.777344 3.378907 4.257813-44.433594-18.144532-100.066407-28.273438-157.667969-28.273438-57.597656 0-113.230469 10.125-157.660156 28.269531zm0 0" fill="#3a373f"/><path d="m345 512h-240c-8.285156 0-15-6.714844-15-15v-121c0-24.8125 20.1875-45 45-45h180c24.8125 0 45 20.1875 45 45v121c0 8.285156-6.714844 15-15 15zm-225-30h210v-106c0-8.269531-6.730469-15-15-15h-180c-8.269531 0-15 6.730469-15 15zm0 0" fill="#c5caf9"/><path d="m255 421h-60c-8.285156 0-15-6.714844-15-15s6.714844-15 15-15h60c8.285156 0 15 6.714844 15 15s-6.714844 15-15 15zm0 0" fill="#9eb1f1"/></svg>